General
Unique ID                                : 233811045264695492367063343857385992515 (0xAFE65E8D17427F82F2008716810DF143)
Complete name                            : Life.Like.2019.BluRay.1080p.DTS-HD.MA.5.1.AVC.REMUX-FraMeSToR.mkv
Format                                   : Matroska
Format version                           : Version 4
File size                                : 15.0 GiB
Duration                                 : 1 h 35 min
Overall bit rate mode                    : Variable
Overall bit rate                         : 22.6 Mb/s
Movie name                               : Life Like (2019)
Encoded date                             : UTC 2020-07-11 01:25:18
Writing application                      : mkvmerge v48.0.0 ('Fortress Around Your Heart') 64-bit
Writing library                          : libebml v1.4.0 + libmatroska v1.6.0
IMDB                                     : tt6547786
TMDB                                     : movie/586707

Video
ID                                       : 1
Format                                   : AVC
Format/Info                              : Advanced Video Codec
Format profile                           : High@L4.1
Format settings                          : CABAC / 2 Ref Frames
Format settings, CABAC                   : Yes
Format settings, Reference frames        : 2 frames
Codec ID                                 : V_MPEG4/ISO/AVC
Duration                                 : 1 h 35 min
Bit rate mode                            : Variable
Bit rate                                 : 20.9 Mb/s
Maximum bit rate                         : 30.2 Mb/s
Width                                    : 1 920 pixels
Height                                   : 1 080 pixels
Display aspect ratio                     : 16:9
Frame rate mode                          : Constant
Frame rate                               : 23.976 (24000/1001) FPS
Color space                              : YUV
Chroma subsampling                       : 4:2:0
Bit depth                                : 8 bits
Scan type                                : Progressive
Bits/(Pixel*Frame)                       : 0.421
Stream size                              : 13.9 GiB (93%)
Default                                  : Yes
Forced                                   : No

Audio
ID                                       : 2
Format                                   : DTS XLL
Format/Info                              : Digital Theater Systems
Commercial name                          : DTS-HD Master Audio
Codec ID                                 : A_DTS
Duration                                 : 1 h 35 min
Bit rate mode                            : Variable
Bit rate                                 : 1 603 kb/s
Channel(s)                               : 6 channels
Channel layout                           : C L R Ls Rs LFE
Sampling rate                            : 48.0 kHz
Frame rate                               : 93.750 FPS (512 SPF)
Bit depth                                : 16 bits
Compression mode                         : Lossless
Stream size                              : 1.07 GiB (7%)
Title                                    : DTS-HD MA 5.1
Language                                 : English
Default                                  : Yes
Forced                                   : No

Text
ID                                       : 3
Format                                   : PGS
Codec ID                                 : S_HDMV/PGS
Codec ID/Info                            : Picture based subtitle format used on BDs/HD-DVDs
Duration                                 : 1 h 30 min
Bit rate                                 : 22.7 kb/s
Count of elements                        : 1713
Stream size                              : 14.7 MiB (0%)
Title                                    : German
Language                                 : German
Default                                  : No
Forced                                   : No

Menu
00:00:00.000                             : en:Chapter 1
00:07:03.506                             : en:Chapter 2
00:13:03.324                             : en:Chapter 3
00:18:38.993                             : en:Chapter 4
00:25:43.792                             : en:Chapter 5
00:31:16.583                             : en:Chapter 6
00:42:49.650                             : en:Chapter 7
00:52:54.880                             : en:Chapter 8
01:03:31.349                             : en:Chapter 9
01:11:14.479                             : en:Chapter 10
01:20:22.526                             : en:Chapter 11
01:30:37.098                             : en:Chapter 12
